<svg width="622" height="351" viewBox="0 0 622 351" fill="none" xmlns="http://www.w3.org/2000/svg">
<g filter="url(#filter0_d_338_2415)">
<rect x="2" width="614" height="343" rx="8" fill="white"/>
<path opacity="0.2" d="M95.2368 98.9639H581.889" stroke="#10182B" stroke-linecap="square"/>
<path opacity="0.2" d="M95.2368 139.449H581.889" stroke="#10182B" stroke-linecap="square"/>
<path opacity="0.2" d="M95.2368 179.934H581.889" stroke="#10182B" stroke-linecap="square"/>
<path opacity="0.2" d="M95.2368 220.42H581.889" stroke="#10182B" stroke-linecap="square"/>
<path opacity="0.2" d="M95.2368 260.905H581.889" stroke="#10182B" stroke-linecap="square"/>
<g clip-path="url(#clip0_338_2415)">
<path d="M504.228 41V32.2727H509.64V33.4062H505.545V36.0653H509.252V37.1946H505.545V41H504.228ZM513.042 41.1321C512.428 41.1321 511.892 40.9915 511.435 40.7102C510.978 40.429 510.623 40.0355 510.37 39.5298C510.117 39.0241 509.99 38.4332 509.99 37.7571C509.99 37.0781 510.117 36.4844 510.37 35.9759C510.623 35.4673 510.978 35.0724 511.435 34.7912C511.892 34.5099 512.428 34.3693 513.042 34.3693C513.655 34.3693 514.191 34.5099 514.648 34.7912C515.105 35.0724 515.461 35.4673 515.713 35.9759C515.966 36.4844 516.093 37.0781 516.093 37.7571C516.093 38.4332 515.966 39.0241 515.713 39.5298C515.461 40.0355 515.105 40.429 514.648 40.7102C514.191 40.9915 513.655 41.1321 513.042 41.1321ZM513.046 40.0625C513.444 40.0625 513.773 39.9574 514.034 39.7472C514.296 39.5369 514.489 39.2571 514.614 38.9077C514.742 38.5582 514.806 38.1733 514.806 37.7528C514.806 37.3352 514.742 36.9517 514.614 36.6023C514.489 36.25 514.296 35.9673 514.034 35.7543C513.773 35.5412 513.444 35.4347 513.046 35.4347C512.645 35.4347 512.313 35.5412 512.049 35.7543C511.787 35.9673 511.593 36.25 511.465 36.6023C511.34 36.9517 511.277 37.3352 511.277 37.7528C511.277 38.1733 511.34 38.5582 511.465 38.9077C511.593 39.2571 511.787 39.5369 512.049 39.7472C512.313 39.9574 512.645 40.0625 513.046 40.0625ZM517.123 41V34.4545H518.354V35.4943H518.422C518.542 35.142 518.752 34.8651 519.053 34.6634C519.357 34.4588 519.701 34.3565 520.084 34.3565C520.164 34.3565 520.258 34.3594 520.365 34.3651C520.476 34.3707 520.563 34.3778 520.625 34.3864V35.6051C520.574 35.5909 520.483 35.5753 520.353 35.5582C520.222 35.5384 520.091 35.5284 519.961 35.5284C519.66 35.5284 519.391 35.5923 519.155 35.7202C518.922 35.8452 518.738 36.0199 518.601 36.2443C518.465 36.4659 518.397 36.7187 518.397 37.0028V41H517.123ZM526.024 41.1449C525.609 41.1449 525.234 41.0682 524.899 40.9148C524.564 40.7585 524.298 40.5327 524.102 40.2372C523.909 39.9418 523.812 39.5795 523.812 39.1506C523.812 38.7812 523.883 38.4773 524.025 38.2386C524.168 38 524.359 37.8111 524.601 37.6719C524.842 37.5327 525.112 37.4276 525.41 37.3565C525.709 37.2855 526.013 37.2315 526.322 37.1946C526.714 37.1491 527.033 37.1122 527.277 37.0838C527.521 37.0526 527.699 37.0028 527.81 36.9347C527.92 36.8665 527.976 36.7557 527.976 36.6023V36.5724C527.976 36.2003 527.871 35.9119 527.66 35.7074C527.453 35.5028 527.143 35.4006 526.731 35.4006C526.302 35.4006 525.964 35.4957 525.717 35.6861C525.473 35.8736 525.304 36.0824 525.21 36.3125L524.013 36.0398C524.155 35.642 524.362 35.321 524.635 35.0767C524.91 34.8295 525.227 34.6506 525.585 34.5398C525.943 34.4261 526.32 34.3693 526.714 34.3693C526.976 34.3693 527.253 34.4006 527.545 34.4631C527.841 34.5227 528.116 34.6335 528.372 34.7955C528.631 34.9574 528.842 35.1889 529.007 35.4901C529.172 35.7884 529.254 36.1761 529.254 36.6534V41H528.01V40.1051H527.959C527.876 40.2699 527.753 40.4318 527.588 40.5909C527.423 40.75 527.212 40.8821 526.953 40.9872C526.695 41.0923 526.385 41.1449 526.024 41.1449ZM526.301 40.1222C526.653 40.1222 526.954 40.0526 527.204 39.9134C527.457 39.7741 527.649 39.5923 527.78 39.3679C527.913 39.1406 527.98 38.8977 527.98 38.6392V37.7955C527.935 37.8409 527.847 37.8835 527.716 37.9233C527.588 37.9602 527.442 37.9929 527.277 38.0213C527.112 38.0469 526.952 38.071 526.795 38.0938C526.639 38.1136 526.508 38.1307 526.403 38.1449C526.156 38.1761 525.93 38.2287 525.726 38.3026C525.524 38.3764 525.362 38.483 525.24 38.6222C525.121 38.7585 525.061 38.9403 525.061 39.1676C525.061 39.483 525.177 39.7216 525.41 39.8835C525.643 40.0426 525.94 40.1222 526.301 40.1222ZM531.833 32.2727V41H530.559V32.2727H531.833ZM534.429 32.2727V41H533.155V32.2727H534.429ZM538.534 43.4545V34.4545H539.779V35.5156H539.885C539.959 35.3793 540.066 35.2216 540.205 35.0426C540.344 34.8636 540.537 34.7074 540.784 34.5739C541.032 34.4375 541.358 34.3693 541.764 34.3693C542.293 34.3693 542.764 34.5028 543.179 34.7699C543.594 35.0369 543.919 35.4219 544.155 35.9247C544.394 36.4276 544.513 37.0327 544.513 37.7401C544.513 38.4474 544.395 39.054 544.159 39.5597C543.924 40.0625 543.6 40.4503 543.188 40.723C542.776 40.9929 542.306 41.1278 541.777 41.1278C541.38 41.1278 541.054 41.0611 540.801 40.9276C540.551 40.794 540.355 40.6378 540.213 40.4588C540.071 40.2798 539.962 40.1207 539.885 39.9815H539.809V43.4545H538.534ZM539.783 37.7273C539.783 38.1875 539.85 38.5909 539.983 38.9375C540.117 39.2841 540.31 39.5554 540.563 39.7514C540.816 39.9446 541.125 40.0412 541.492 40.0412C541.872 40.0412 542.191 39.9403 542.446 39.7386C542.702 39.5341 542.895 39.2571 543.026 38.9077C543.159 38.5582 543.226 38.1648 543.226 37.7273C543.226 37.2955 543.161 36.9077 543.03 36.5639C542.902 36.2202 542.709 35.9489 542.451 35.75C542.195 35.5511 541.875 35.4517 541.492 35.4517C541.122 35.4517 540.81 35.5469 540.554 35.7372C540.301 35.9276 540.11 36.1932 539.979 36.5341C539.848 36.875 539.783 37.2727 539.783 37.7273ZM548.369 41.1321C547.724 41.1321 547.169 40.9943 546.703 40.7188C546.24 40.4403 545.882 40.0497 545.629 39.5469C545.379 39.0412 545.254 38.4489 545.254 37.7699C545.254 37.0994 545.379 36.5085 545.629 35.9972C545.882 35.4858 546.234 35.0866 546.686 34.7997C547.141 34.5128 547.672 34.3693 548.28 34.3693C548.649 34.3693 549.007 34.4304 549.354 34.5526C549.7 34.6747 550.011 34.8665 550.287 35.1278C550.563 35.3892 550.78 35.7287 550.939 36.1463C551.098 36.5611 551.178 37.0653 551.178 37.6591V38.1108H545.974V37.1562H549.929C549.929 36.821 549.861 36.5241 549.724 36.2656C549.588 36.0043 549.396 35.7983 549.149 35.6477C548.905 35.4972 548.618 35.4219 548.288 35.4219C547.93 35.4219 547.618 35.5099 547.351 35.6861C547.087 35.8594 546.882 36.0866 546.737 36.3679C546.595 36.6463 546.524 36.9489 546.524 37.2756V38.0213C546.524 38.4588 546.601 38.831 546.754 39.1378C546.911 39.4446 547.128 39.679 547.406 39.8409C547.685 40 548.01 40.0795 548.382 40.0795C548.624 40.0795 548.844 40.0455 549.043 39.9773C549.242 39.9062 549.413 39.8011 549.558 39.6619C549.703 39.5227 549.814 39.3509 549.891 39.1463L551.097 39.3636C551 39.7187 550.827 40.0298 550.577 40.2969C550.33 40.5611 550.018 40.767 549.643 40.9148C549.271 41.0597 548.847 41.1321 548.369 41.1321ZM552.199 41V34.4545H553.431V35.4943H553.499C553.618 35.142 553.828 34.8651 554.129 34.6634C554.433 34.4588 554.777 34.3565 555.161 34.3565C555.24 34.3565 555.334 34.3594 555.442 34.3651C555.553 34.3707 555.639 34.3778 555.702 34.3864V35.6051C555.651 35.5909 555.56 35.5753 555.429 35.5582C555.298 35.5384 555.168 35.5284 555.037 35.5284C554.736 35.5284 554.467 35.5923 554.232 35.7202C553.999 35.8452 553.814 36.0199 553.678 36.2443C553.541 36.4659 553.473 36.7187 553.473 37.0028V41H552.199ZM556.412 41V34.4545H557.686V41H556.412ZM557.056 33.4446C556.834 33.4446 556.644 33.3707 556.485 33.223C556.328 33.0724 556.25 32.8935 556.25 32.6861C556.25 32.4759 556.328 32.2969 556.485 32.1491C556.644 31.9986 556.834 31.9233 557.056 31.9233C557.277 31.9233 557.466 31.9986 557.622 32.1491C557.781 32.2969 557.861 32.4759 557.861 32.6861C557.861 32.8935 557.781 33.0724 557.622 33.223C557.466 33.3707 557.277 33.4446 557.056 33.4446ZM561.765 41.1321C561.152 41.1321 560.616 40.9915 560.159 40.7102C559.701 40.429 559.346 40.0355 559.093 39.5298C558.841 39.0241 558.714 38.4332 558.714 37.7571C558.714 37.0781 558.841 36.4844 559.093 35.9759C559.346 35.4673 559.701 35.0724 560.159 34.7912C560.616 34.5099 561.152 34.3693 561.765 34.3693C562.379 34.3693 562.914 34.5099 563.372 34.7912C563.829 35.0724 564.184 35.4673 564.437 35.9759C564.69 36.4844 564.816 37.0781 564.816 37.7571C564.816 38.4332 564.69 39.0241 564.437 39.5298C564.184 40.0355 563.829 40.429 563.372 40.7102C562.914 40.9915 562.379 41.1321 561.765 41.1321ZM561.769 40.0625C562.167 40.0625 562.497 39.9574 562.758 39.7472C563.019 39.5369 563.213 39.2571 563.338 38.9077C563.466 38.5582 563.529 38.1733 563.529 37.7528C563.529 37.3352 563.466 36.9517 563.338 36.6023C563.213 36.25 563.019 35.9673 562.758 35.7543C562.497 35.5412 562.167 35.4347 561.769 35.4347C561.369 35.4347 561.037 35.5412 560.772 35.7543C560.511 35.9673 560.316 36.25 560.189 36.6023C560.064 36.9517 560.001 37.3352 560.001 37.7528C560.001 38.1733 560.064 38.5582 560.189 38.9077C560.316 39.2571 560.511 39.5369 560.772 39.7472C561.037 39.9574 561.369 40.0625 561.769 40.0625ZM568.297 41.1278C567.768 41.1278 567.297 40.9929 566.882 40.723C566.47 40.4503 566.146 40.0625 565.91 39.5597C565.677 39.054 565.561 38.4474 565.561 37.7401C565.561 37.0327 565.679 36.4276 565.914 35.9247C566.153 35.4219 566.48 35.0369 566.895 34.7699C567.309 34.5028 567.78 34.3693 568.305 34.3693C568.711 34.3693 569.038 34.4375 569.285 34.5739C569.535 34.7074 569.728 34.8636 569.865 35.0426C570.004 35.2216 570.112 35.3793 570.189 35.5156H570.265V32.2727H571.539V41H570.295V39.9815H570.189C570.112 40.1207 570.001 40.2798 569.856 40.4588C569.714 40.6378 569.518 40.794 569.268 40.9276C569.018 41.0611 568.694 41.1278 568.297 41.1278ZM568.578 40.0412C568.944 40.0412 569.254 39.9446 569.507 39.7514C569.762 39.5554 569.956 39.2841 570.086 38.9375C570.22 38.5909 570.287 38.1875 570.287 37.7273C570.287 37.2727 570.221 36.875 570.091 36.5341C569.96 36.1932 569.768 35.9276 569.515 35.7372C569.262 35.5469 568.95 35.4517 568.578 35.4517C568.194 35.4517 567.875 35.5511 567.619 35.75C567.363 35.9489 567.17 36.2202 567.039 36.5639C566.912 36.9077 566.848 37.2955 566.848 37.7273C566.848 38.1648 566.913 38.5582 567.044 38.9077C567.174 39.2571 567.368 39.5341 567.623 39.7386C567.882 39.9403 568.2 40.0412 568.578 40.0412Z" fill="#96999C"/>
<path fill-rule="evenodd" clip-rule="evenodd" d="M588.277 34.4748C588.521 34.7189 588.521 35.1146 588.277 35.3587L584.943 38.692C584.699 38.9361 584.303 38.9361 584.059 38.692L580.726 35.3587C580.482 35.1146 580.482 34.7189 580.726 34.4748C580.97 34.2307 581.366 34.2307 581.61 34.4748L584.501 37.3662L587.393 34.4748C587.637 34.2307 588.032 34.2307 588.277 34.4748Z" fill="#96999C"/>
</g>
<path d="M32.4759 29.4545H34.9688L38.7685 36.0668H38.9247L42.7244 29.4545H45.2173L39.9403 38.2898V44H37.7528V38.2898L32.4759 29.4545ZM49.2634 44.2202C48.2407 44.2202 47.3482 43.9858 46.5859 43.517C45.8235 43.0483 45.2317 42.3925 44.8103 41.5497C44.3889 40.7069 44.1782 39.7221 44.1782 38.5952C44.1782 37.4635 44.3889 36.474 44.8103 35.6264C45.2317 34.7789 45.8235 34.1207 46.5859 33.652C47.3482 33.1832 48.2407 32.9489 49.2634 32.9489C50.2861 32.9489 51.1787 33.1832 51.941 33.652C52.7033 34.1207 53.2951 34.7789 53.7165 35.6264C54.1379 36.474 54.3486 37.4635 54.3486 38.5952C54.3486 39.7221 54.1379 40.7069 53.7165 41.5497C53.2951 42.3925 52.7033 43.0483 51.941 43.517C51.1787 43.9858 50.2861 44.2202 49.2634 44.2202ZM49.2705 42.4375C49.9334 42.4375 50.4826 42.2623 50.9182 41.9119C51.3538 41.5616 51.6758 41.0952 51.8842 40.5128C52.0972 39.9304 52.2038 39.2888 52.2038 38.5881C52.2038 37.892 52.0972 37.2528 51.8842 36.6705C51.6758 36.0833 51.3538 35.6122 50.9182 35.2571C50.4826 34.902 49.9334 34.7244 49.2705 34.7244C48.6029 34.7244 48.0489 34.902 47.6086 35.2571C47.173 35.6122 46.8486 36.0833 46.6356 36.6705C46.4272 37.2528 46.3231 37.892 46.3231 38.5881C46.3231 39.2888 46.4272 39.9304 46.6356 40.5128C46.8486 41.0952 47.173 41.5616 47.6086 41.9119C48.0489 42.2623 48.6029 42.4375 49.2705 42.4375ZM62.9757 39.4759V33.0909H65.1064V44H63.0183V42.1108H62.9047C62.6537 42.6932 62.2513 43.1785 61.6973 43.5668C61.148 43.9503 60.4639 44.142 59.6447 44.142C58.944 44.142 58.3237 43.9882 57.7839 43.6804C57.2489 43.3679 56.8275 42.9062 56.5197 42.2955C56.2167 41.6847 56.0652 40.9295 56.0652 40.0298V33.0909H58.1888V39.7741C58.1888 40.5175 58.3947 41.1094 58.8067 41.5497C59.2186 41.9901 59.7536 42.2102 60.4118 42.2102C60.8095 42.2102 61.2049 42.1108 61.5978 41.9119C61.9956 41.7131 62.3246 41.4124 62.5851 41.0099C62.8502 40.6075 62.9804 40.0961 62.9757 39.4759ZM67.3059 44V33.0909H69.3584V34.8239H69.4721C69.6709 34.2367 70.0213 33.7751 70.5232 33.4389C71.0298 33.098 71.6027 32.9276 72.2419 32.9276C72.3745 32.9276 72.5308 32.9323 72.7107 32.9418C72.8953 32.9512 73.0398 32.9631 73.1439 32.9773V35.0085C73.0587 34.9848 72.9072 34.9588 72.6894 34.9304C72.4716 34.8973 72.2538 34.8807 72.036 34.8807C71.5341 34.8807 71.0866 34.9872 70.6936 35.2003C70.3054 35.4086 69.9976 35.6998 69.7703 36.0739C69.5431 36.4432 69.4294 36.8646 69.4294 37.3381V44H67.3059ZM79.1374 44V29.4545H84.322C85.4537 29.4545 86.3912 29.6605 87.1345 30.0724C87.8779 30.4844 88.4343 31.0478 88.8036 31.7628C89.1729 32.473 89.3575 33.2732 89.3575 34.1634C89.3575 35.0582 89.1705 35.8632 88.7965 36.5781C88.4271 37.2884 87.8684 37.8518 87.1203 38.2685C86.377 38.6804 85.4418 38.8864 84.3149 38.8864H80.7496V37.0256H84.1161C84.831 37.0256 85.411 36.9025 85.8561 36.6562C86.3012 36.4053 86.6279 36.0644 86.8362 35.6335C87.0446 35.2027 87.1487 34.7126 87.1487 34.1634C87.1487 33.6141 87.0446 33.1264 86.8362 32.7003C86.6279 32.2741 86.2988 31.9403 85.849 31.6989C85.4039 31.4574 84.8168 31.3366 84.0877 31.3366H81.332V44H79.1374ZM91.106 44V33.0909H93.1586V34.8239H93.2722C93.4711 34.2367 93.8215 33.7751 94.3234 33.4389C94.83 33.098 95.4029 32.9276 96.0421 32.9276C96.1747 32.9276 96.3309 32.9323 96.5109 32.9418C96.6955 32.9512 96.8399 32.9631 96.9441 32.9773V35.0085C96.8589 34.9848 96.7074 34.9588 96.4896 34.9304C96.2718 34.8973 96.054 34.8807 95.8362 34.8807C95.3343 34.8807 94.8868 34.9872 94.4938 35.2003C94.1056 35.4086 93.7978 35.6998 93.5705 36.0739C93.3433 36.4432 93.2296 36.8646 93.2296 37.3381V44H91.106ZM102.333 44.2202C101.31 44.2202 100.417 43.9858 99.655 43.517C98.8927 43.0483 98.3008 42.3925 97.8794 41.5497C97.458 40.7069 97.2473 39.7221 97.2473 38.5952C97.2473 37.4635 97.458 36.474 97.8794 35.6264C98.3008 34.7789 98.8927 34.1207 99.655 33.652C100.417 33.1832 101.31 32.9489 102.333 32.9489C103.355 32.9489 104.248 33.1832 105.01 33.652C105.772 34.1207 106.364 34.7789 106.786 35.6264C107.207 36.474 107.418 37.4635 107.418 38.5952C107.418 39.7221 107.207 40.7069 106.786 41.5497C106.364 42.3925 105.772 43.0483 105.01 43.517C104.248 43.9858 103.355 44.2202 102.333 44.2202ZM102.34 42.4375C103.003 42.4375 103.552 42.2623 103.987 41.9119C104.423 41.5616 104.745 41.0952 104.953 40.5128C105.166 39.9304 105.273 39.2888 105.273 38.5881C105.273 37.892 105.166 37.2528 104.953 36.6705C104.745 36.0833 104.423 35.6122 103.987 35.2571C103.552 34.902 103.003 34.7244 102.34 34.7244C101.672 34.7244 101.118 34.902 100.678 35.2571C100.242 35.6122 99.9178 36.0833 99.7047 36.6705C99.4964 37.2528 99.3922 37.892 99.3922 38.5881C99.3922 39.2888 99.4964 39.9304 99.7047 40.5128C99.9178 41.0952 100.242 41.5616 100.678 41.9119C101.118 42.2623 101.672 42.4375 102.34 42.4375ZM113.708 48.3182C112.842 48.3182 112.096 48.2045 111.471 47.9773C110.851 47.75 110.344 47.4493 109.951 47.0753C109.558 46.7012 109.264 46.2917 109.07 45.8466L110.896 45.0938C111.023 45.3021 111.194 45.5223 111.407 45.7543C111.625 45.991 111.918 46.1922 112.288 46.358C112.662 46.5237 113.142 46.6065 113.729 46.6065C114.534 46.6065 115.2 46.41 115.725 46.017C116.251 45.6288 116.514 45.0085 116.514 44.1562V42.0114H116.379C116.251 42.2434 116.066 42.5014 115.825 42.7855C115.588 43.0696 115.261 43.3158 114.845 43.5241C114.428 43.7325 113.886 43.8366 113.218 43.8366C112.356 43.8366 111.58 43.6354 110.889 43.233C110.202 42.8258 109.657 42.2268 109.255 41.4361C108.857 40.6406 108.658 39.6629 108.658 38.5028C108.658 37.3428 108.855 36.3485 109.248 35.5199C109.646 34.6913 110.19 34.0568 110.881 33.6165C111.573 33.1714 112.356 32.9489 113.232 32.9489C113.909 32.9489 114.456 33.0625 114.873 33.2898C115.29 33.5123 115.614 33.7727 115.846 34.071C116.083 34.3693 116.265 34.6321 116.393 34.8594H116.549V33.0909H118.63V44.2415C118.63 45.179 118.412 45.9484 117.977 46.5497C117.541 47.151 116.952 47.5961 116.208 47.8849C115.47 48.1738 114.636 48.3182 113.708 48.3182ZM113.687 42.0753C114.298 42.0753 114.814 41.9332 115.235 41.6491C115.661 41.3603 115.983 40.9484 116.201 40.4134C116.424 39.8736 116.535 39.2273 116.535 38.4744C116.535 37.7405 116.426 37.0942 116.208 36.5355C115.99 35.9768 115.671 35.5412 115.249 35.2287C114.828 34.9115 114.307 34.7528 113.687 34.7528C113.048 34.7528 112.515 34.9186 112.089 35.25C111.663 35.5767 111.341 36.0218 111.123 36.5852C110.91 37.1487 110.803 37.7784 110.803 38.4744C110.803 39.1894 110.912 39.8168 111.13 40.3565C111.348 40.8963 111.67 41.3177 112.096 41.6207C112.527 41.9238 113.057 42.0753 113.687 42.0753ZM120.824 44V33.0909H122.877V34.8239H122.99C123.189 34.2367 123.54 33.7751 124.042 33.4389C124.548 33.098 125.121 32.9276 125.76 32.9276C125.893 32.9276 126.049 32.9323 126.229 32.9418C126.414 32.9512 126.558 32.9631 126.662 32.9773V35.0085C126.577 34.9848 126.426 34.9588 126.208 34.9304C125.99 34.8973 125.772 34.8807 125.554 34.8807C125.052 34.8807 124.605 34.9872 124.212 35.2003C123.824 35.4086 123.516 35.6998 123.289 36.0739C123.061 36.4432 122.948 36.8646 122.948 37.3381V44H120.824ZM132.157 44.2202C131.082 44.2202 130.157 43.9905 129.38 43.5312C128.608 43.0672 128.012 42.4162 127.59 41.5781C127.174 40.7353 126.965 39.7481 126.965 38.6165C126.965 37.4991 127.174 36.5142 127.59 35.6619C128.012 34.8097 128.599 34.1444 129.352 33.6662C130.109 33.188 130.995 32.9489 132.008 32.9489C132.624 32.9489 133.22 33.0507 133.798 33.2543C134.375 33.4579 134.894 33.7775 135.353 34.2131C135.813 34.6487 136.175 35.2145 136.44 35.9105C136.705 36.6018 136.838 37.4422 136.838 38.4318V39.1847H128.166V37.5938H134.757C134.757 37.035 134.643 36.5402 134.416 36.1094C134.188 35.6738 133.869 35.3305 133.457 35.0795C133.05 34.8286 132.572 34.7031 132.022 34.7031C131.426 34.7031 130.905 34.8499 130.46 35.1435C130.019 35.4323 129.679 35.8111 129.437 36.2798C129.2 36.7438 129.082 37.2481 129.082 37.7926V39.0355C129.082 39.7647 129.21 40.3849 129.465 40.8963C129.726 41.4077 130.088 41.7983 130.552 42.0682C131.016 42.3333 131.558 42.4659 132.179 42.4659C132.581 42.4659 132.948 42.4091 133.279 42.2955C133.611 42.1771 133.897 42.0019 134.139 41.7699C134.38 41.5379 134.565 41.2514 134.693 40.9105L136.703 41.2727C136.542 41.8646 136.253 42.383 135.836 42.8281C135.424 43.2685 134.906 43.6117 134.281 43.858C133.661 44.0994 132.953 44.2202 132.157 44.2202ZM146.715 35.7543L144.79 36.0952C144.709 35.849 144.582 35.6146 144.406 35.392C144.236 35.1695 144.004 34.9872 143.71 34.8452C143.417 34.7031 143.05 34.6321 142.61 34.6321C142.008 34.6321 141.506 34.767 141.104 35.0369C140.701 35.3021 140.5 35.6454 140.5 36.0668C140.5 36.4313 140.635 36.7249 140.905 36.9474C141.175 37.17 141.61 37.3523 142.212 37.4943L143.945 37.892C144.949 38.1241 145.697 38.4815 146.189 38.9645C146.682 39.4474 146.928 40.0748 146.928 40.8466C146.928 41.5 146.738 42.0824 146.36 42.5938C145.985 43.1004 145.462 43.4981 144.79 43.7869C144.122 44.0758 143.348 44.2202 142.467 44.2202C141.246 44.2202 140.249 43.9598 139.477 43.4389C138.706 42.9134 138.232 42.1676 138.057 41.2017L140.11 40.8892C140.237 41.4242 140.5 41.8291 140.898 42.1037C141.296 42.3736 141.814 42.5085 142.453 42.5085C143.149 42.5085 143.706 42.3641 144.122 42.0753C144.539 41.7817 144.747 41.4242 144.747 41.0028C144.747 40.6619 144.619 40.3755 144.364 40.1435C144.113 39.9115 143.727 39.7363 143.206 39.6179L141.36 39.2131C140.342 38.9811 139.589 38.6117 139.101 38.1051C138.618 37.5985 138.377 36.9569 138.377 36.1804C138.377 35.5365 138.557 34.973 138.916 34.4901C139.276 34.0071 139.773 33.6307 140.408 33.3608C141.042 33.0862 141.769 32.9489 142.588 32.9489C143.767 32.9489 144.695 33.2045 145.372 33.7159C146.049 34.2225 146.497 34.902 146.715 35.7543ZM156.783 35.7543L154.859 36.0952C154.778 35.849 154.65 35.6146 154.475 35.392C154.305 35.1695 154.073 34.9872 153.779 34.8452C153.486 34.7031 153.119 34.6321 152.678 34.6321C152.077 34.6321 151.575 34.767 151.173 35.0369C150.77 35.3021 150.569 35.6454 150.569 36.0668C150.569 36.4313 150.704 36.7249 150.974 36.9474C151.244 37.17 151.679 37.3523 152.281 37.4943L154.014 37.892C155.017 38.1241 155.765 38.4815 156.258 38.9645C156.75 39.4474 156.997 40.0748 156.997 40.8466C156.997 41.5 156.807 42.0824 156.428 42.5938C156.054 43.1004 155.531 43.4981 154.859 43.7869C154.191 44.0758 153.417 44.2202 152.536 44.2202C151.315 44.2202 150.318 43.9598 149.546 43.4389C148.774 42.9134 148.301 42.1676 148.126 41.2017L150.178 40.8892C150.306 41.4242 150.569 41.8291 150.967 42.1037C151.364 42.3736 151.883 42.5085 152.522 42.5085C153.218 42.5085 153.774 42.3641 154.191 42.0753C154.608 41.7817 154.816 41.4242 154.816 41.0028C154.816 40.6619 154.688 40.3755 154.433 40.1435C154.182 39.9115 153.796 39.7363 153.275 39.6179L151.428 39.2131C150.41 38.9811 149.658 38.6117 149.17 38.1051C148.687 37.5985 148.445 36.9569 148.445 36.1804C148.445 35.5365 148.625 34.973 148.985 34.4901C149.345 34.0071 149.842 33.6307 150.477 33.3608C151.111 33.0862 151.838 32.9489 152.657 32.9489C153.836 32.9489 154.764 33.2045 155.441 33.7159C156.118 34.2225 156.566 34.902 156.783 35.7543ZM158.678 44V33.0909H160.801V44H158.678ZM159.75 31.4077C159.381 31.4077 159.063 31.2846 158.798 31.0384C158.538 30.7874 158.408 30.4891 158.408 30.1435C158.408 29.7931 158.538 29.4948 158.798 29.2486C159.063 28.9976 159.381 28.8722 159.75 28.8722C160.119 28.8722 160.434 28.9976 160.695 29.2486C160.96 29.4948 161.092 29.7931 161.092 30.1435C161.092 30.4891 160.96 30.7874 160.695 31.0384C160.434 31.2846 160.119 31.4077 159.75 31.4077ZM167.599 44.2202C166.577 44.2202 165.684 43.9858 164.922 43.517C164.159 43.0483 163.568 42.3925 163.146 41.5497C162.725 40.7069 162.514 39.7221 162.514 38.5952C162.514 37.4635 162.725 36.474 163.146 35.6264C163.568 34.7789 164.159 34.1207 164.922 33.652C165.684 33.1832 166.577 32.9489 167.599 32.9489C168.622 32.9489 169.515 33.1832 170.277 33.652C171.039 34.1207 171.631 34.7789 172.052 35.6264C172.474 36.474 172.685 37.4635 172.685 38.5952C172.685 39.7221 172.474 40.7069 172.052 41.5497C171.631 42.3925 171.039 43.0483 170.277 43.517C169.515 43.9858 168.622 44.2202 167.599 44.2202ZM167.606 42.4375C168.269 42.4375 168.819 42.2623 169.254 41.9119C169.69 41.5616 170.012 41.0952 170.22 40.5128C170.433 39.9304 170.54 39.2888 170.54 38.5881C170.54 37.892 170.433 37.2528 170.22 36.6705C170.012 36.0833 169.69 35.6122 169.254 35.2571C168.819 34.902 168.269 34.7244 167.606 34.7244C166.939 34.7244 166.385 34.902 165.945 35.2571C165.509 35.6122 165.185 36.0833 164.972 36.6705C164.763 37.2528 164.659 37.892 164.659 38.5881C164.659 39.2888 164.763 39.9304 164.972 40.5128C165.185 41.0952 165.509 41.5616 165.945 41.9119C166.385 42.2623 166.939 42.4375 167.606 42.4375ZM176.525 37.5227V44H174.401V33.0909H176.439V34.8665H176.574C176.825 34.2888 177.218 33.8248 177.753 33.4744C178.293 33.1241 178.973 32.9489 179.792 32.9489C180.535 32.9489 181.186 33.1051 181.745 33.4176C182.304 33.7254 182.737 34.1847 183.045 34.7955C183.352 35.4062 183.506 36.1615 183.506 37.0611V44H181.383V37.3168C181.383 36.526 181.177 35.9081 180.765 35.4631C180.353 35.0133 179.787 34.7884 179.067 34.7884C178.575 34.7884 178.137 34.8949 177.753 35.108C177.375 35.321 177.074 35.6335 176.851 36.0455C176.634 36.4527 176.525 36.9451 176.525 37.5227Z" fill="#10182B"/>
<g clip-path="url(#clip1_338_2415)">
<path d="M41.6623 257.305V266.033H40.3413V258.626H40.2901L38.2021 259.99V258.729L40.3796 257.305H41.6623ZM46.6691 266.178C45.9958 266.175 45.4205 265.997 44.9433 265.645C44.466 265.293 44.1009 264.78 43.8481 264.107C43.5953 263.433 43.4688 262.622 43.4688 261.673C43.4688 260.727 43.5953 259.919 43.8481 259.249C44.1038 258.578 44.4703 258.067 44.9475 257.715C45.4276 257.362 46.0015 257.186 46.6691 257.186C47.3367 257.186 47.9092 257.364 48.3865 257.719C48.8637 258.071 49.2288 258.582 49.4816 259.253C49.7373 259.92 49.8651 260.727 49.8651 261.673C49.8651 262.625 49.7387 263.438 49.4859 264.111C49.233 264.781 48.868 265.294 48.3907 265.649C47.9134 266.001 47.3396 266.178 46.6691 266.178ZM46.6691 265.04C47.26 265.04 47.7217 264.751 48.0541 264.175C48.3893 263.598 48.5569 262.764 48.5569 261.673C48.5569 260.949 48.4802 260.337 48.3268 259.837C48.1762 259.334 47.9589 258.953 47.6748 258.695C47.3936 258.433 47.0583 258.303 46.6691 258.303C46.0811 258.303 45.6194 258.592 45.2842 259.172C44.949 259.751 44.7799 260.585 44.7771 261.673C44.7771 262.401 44.8524 263.016 45.0029 263.519C45.1563 264.019 45.3737 264.398 45.6549 264.656C45.9362 264.912 46.2742 265.04 46.6691 265.04Z" fill="#96999C"/>
<path d="M38.3512 226.033V225.078L41.3043 222.019C41.6197 221.686 41.8796 221.395 42.0842 221.145C42.2915 220.892 42.4464 220.652 42.5487 220.425C42.6509 220.197 42.7021 219.956 42.7021 219.7C42.7021 219.411 42.6339 219.161 42.4975 218.95C42.3612 218.737 42.1751 218.574 41.9393 218.46C41.7035 218.344 41.4379 218.286 41.1424 218.286C40.8299 218.286 40.5572 218.349 40.3242 218.477C40.0913 218.605 39.9123 218.786 39.7873 219.019C39.6623 219.251 39.5998 219.524 39.5998 219.837H38.3427C38.3427 219.305 38.4648 218.841 38.7092 218.443C38.9535 218.045 39.2887 217.737 39.7148 217.519C40.141 217.297 40.6254 217.186 41.168 217.186C41.7163 217.186 42.1992 217.295 42.6168 217.514C43.0373 217.73 43.3654 218.026 43.6012 218.401C43.837 218.773 43.9549 219.193 43.9549 219.662C43.9549 219.986 43.8938 220.303 43.7717 220.612C43.6523 220.922 43.4435 221.267 43.1452 221.648C42.8469 222.026 42.4322 222.484 41.9009 223.024L40.1665 224.84V224.903H44.0955V226.033H38.3512ZM48.3566 226.178C47.6833 226.175 47.108 225.997 46.6308 225.645C46.1535 225.293 45.7884 224.78 45.5356 224.107C45.2828 223.433 45.1563 222.622 45.1563 221.673C45.1563 220.727 45.2828 219.919 45.5356 219.249C45.7913 218.578 46.1578 218.067 46.635 217.715C47.1151 217.362 47.689 217.186 48.3566 217.186C49.0242 217.186 49.5967 217.364 50.074 217.719C50.5512 218.071 50.9163 218.582 51.1691 219.253C51.4248 219.92 51.5526 220.727 51.5526 221.673C51.5526 222.625 51.4262 223.438 51.1734 224.111C50.9205 224.781 50.5555 225.294 50.0782 225.649C49.6009 226.001 49.0271 226.178 48.3566 226.178ZM48.3566 225.04C48.9475 225.04 49.4092 224.751 49.7416 224.175C50.0768 223.598 50.2444 222.764 50.2444 221.673C50.2444 220.949 50.1677 220.337 50.0143 219.837C49.8637 219.334 49.6464 218.953 49.3623 218.695C49.0811 218.433 48.7458 218.303 48.3566 218.303C47.7686 218.303 47.3069 218.592 46.9717 219.172C46.6365 219.751 46.4674 220.585 46.4646 221.673C46.4646 222.401 46.5399 223.016 46.6904 223.519C46.8438 224.019 47.0612 224.398 47.3424 224.656C47.6237 224.912 47.9617 225.04 48.3566 225.04Z" fill="#96999C"/>
<path d="M41.3896 184.152C40.8043 184.152 40.2816 184.051 39.8214 183.849C39.364 183.648 39.0018 183.368 38.7347 183.01C38.4705 182.649 38.3285 182.232 38.3086 181.757H39.6467C39.6637 182.016 39.7504 182.24 39.9066 182.43C40.0657 182.618 40.2731 182.763 40.5288 182.865C40.7844 182.967 41.0685 183.019 41.381 183.019C41.7248 183.019 42.0288 182.959 42.293 182.84C42.56 182.72 42.7688 182.554 42.9194 182.341C43.07 182.125 43.1452 181.876 43.1452 181.595C43.1452 181.303 43.07 181.045 42.9194 180.824C42.7717 180.599 42.5543 180.423 42.2674 180.295C41.9833 180.168 41.6396 180.104 41.2362 180.104H40.4989V179.03H41.2362C41.56 179.03 41.8441 178.972 42.0884 178.855C42.3356 178.739 42.5288 178.577 42.668 178.369C42.8072 178.159 42.8768 177.913 42.8768 177.632C42.8768 177.362 42.8157 177.128 42.6935 176.929C42.5742 176.727 42.4038 176.57 42.1822 176.456C41.9634 176.342 41.7049 176.286 41.4066 176.286C41.1225 176.286 40.8569 176.338 40.6097 176.443C40.3654 176.545 40.1665 176.693 40.0131 176.886C39.8597 177.077 39.7773 177.305 39.766 177.572H38.4918C38.506 177.101 38.6452 176.686 38.9094 176.328C39.1765 175.97 39.5288 175.69 39.9663 175.489C40.4038 175.287 40.8896 175.186 41.4237 175.186C41.9833 175.186 42.4663 175.295 42.8725 175.514C43.2816 175.73 43.5969 176.019 43.8185 176.379C44.043 176.74 44.1538 177.135 44.1509 177.564C44.1538 178.053 44.0174 178.467 43.7418 178.808C43.4691 179.149 43.1055 179.378 42.6509 179.494V179.563C43.2305 179.651 43.6793 179.881 43.9975 180.253C44.3185 180.625 44.4776 181.087 44.4748 181.638C44.4776 182.118 44.3441 182.548 44.0742 182.929C43.8072 183.31 43.4421 183.609 42.979 183.828C42.516 184.044 41.9862 184.152 41.3896 184.152ZM48.7316 184.178C48.0583 184.175 47.483 183.997 47.0058 183.645C46.5285 183.293 46.1634 182.78 45.9106 182.107C45.6578 181.433 45.5313 180.622 45.5313 179.673C45.5313 178.727 45.6578 177.919 45.9106 177.249C46.1663 176.578 46.5328 176.067 47.01 175.715C47.4901 175.362 48.064 175.186 48.7316 175.186C49.3992 175.186 49.9717 175.364 50.449 175.719C50.9262 176.071 51.2913 176.582 51.5441 177.253C51.7998 177.92 51.9276 178.727 51.9276 179.673C51.9276 180.625 51.8012 181.438 51.5484 182.111C51.2955 182.781 50.9305 183.294 50.4532 183.649C49.9759 184.001 49.4021 184.178 48.7316 184.178ZM48.7316 183.04C49.3225 183.04 49.7842 182.751 50.1166 182.175C50.4518 181.598 50.6194 180.764 50.6194 179.673C50.6194 178.949 50.5427 178.337 50.3893 177.837C50.2387 177.334 50.0214 176.953 49.7373 176.695C49.4561 176.433 49.1208 176.303 48.7316 176.303C48.1436 176.303 47.6819 176.592 47.3467 177.172C47.0115 177.751 46.8424 178.585 46.8396 179.673C46.8396 180.401 46.9149 181.016 47.0654 181.519C47.2188 182.019 47.4362 182.398 47.7174 182.656C47.9987 182.912 48.3367 183.04 48.7316 183.04Z" fill="#96999C"/>
<path d="M38.168 142.328V141.263L41.9393 135.305H42.7788V136.874H42.2461L39.5487 141.144V141.212H44.7177V142.328H38.168ZM42.3058 144.033V142.004L42.3143 141.519V135.305H43.5629V144.033H42.3058ZM48.8488 144.178C48.1755 144.175 47.6002 143.997 47.123 143.645C46.6457 143.293 46.2806 142.78 46.0278 142.107C45.775 141.433 45.6485 140.622 45.6485 139.673C45.6485 138.727 45.775 137.919 46.0278 137.249C46.2835 136.578 46.65 136.067 47.1272 135.715C47.6073 135.362 48.1812 135.186 48.8488 135.186C49.5164 135.186 50.0889 135.364 50.5661 135.719C51.0434 136.071 51.4085 136.582 51.6613 137.253C51.917 137.92 52.0448 138.727 52.0448 139.673C52.0448 140.625 51.9184 141.438 51.6656 142.111C51.4127 142.781 51.0477 143.294 50.5704 143.649C50.0931 144.001 49.5193 144.178 48.8488 144.178ZM48.8488 143.04C49.4397 143.04 49.9014 142.751 50.2338 142.175C50.569 141.598 50.7366 140.764 50.7366 139.673C50.7366 138.949 50.6599 138.337 50.5065 137.837C50.3559 137.334 50.1386 136.953 49.8545 136.695C49.5732 136.433 49.238 136.303 48.8488 136.303C48.2607 136.303 47.7991 136.592 47.4639 137.172C47.1286 137.751 46.9596 138.585 46.9568 139.673C46.9568 140.401 47.0321 141.016 47.1826 141.519C47.336 142.019 47.5534 142.398 47.8346 142.656C48.1159 142.912 48.4539 143.04 48.8488 143.04Z" fill="#96999C"/>
<path d="M41.2319 104.152C40.6978 104.152 40.2177 104.05 39.7915 103.845C39.3683 103.638 39.0302 103.354 38.7773 102.993C38.5245 102.632 38.3896 102.22 38.3725 101.757H39.6509C39.6822 102.132 39.8484 102.44 40.1495 102.682C40.4506 102.923 40.8114 103.044 41.2319 103.044C41.5671 103.044 41.864 102.967 42.1225 102.814C42.3839 102.658 42.5884 102.443 42.7362 102.17C42.8867 101.898 42.962 101.587 42.962 101.237C42.962 100.882 42.8853 100.565 42.7319 100.287C42.5785 100.009 42.3668 99.7898 42.0969 99.6307C41.8299 99.4716 41.5231 99.3907 41.1765 99.3878C40.9123 99.3878 40.6467 99.4333 40.3796 99.5242C40.1126 99.6151 39.8967 99.7344 39.7319 99.8821L38.5259 99.7032L39.016 95.3054H43.8143V96.4347H40.1112L39.8342 98.8765H39.8853C40.0558 98.7117 40.2816 98.5739 40.5629 98.4631C40.8469 98.3523 41.1509 98.2969 41.4748 98.2969C42.006 98.2969 42.479 98.4233 42.8938 98.6762C43.3114 98.929 43.6396 99.2742 43.8782 99.7117C44.1197 100.146 44.239 100.646 44.2362 101.212C44.239 101.777 44.1112 102.281 43.8526 102.724C43.5969 103.168 43.2418 103.517 42.7873 103.773C42.3356 104.026 41.8171 104.152 41.2319 104.152ZM48.4387 104.178C47.7654 104.175 47.1901 103.997 46.7128 103.645C46.2355 103.293 45.8705 102.78 45.6176 102.107C45.3648 101.433 45.2384 100.622 45.2384 99.6733C45.2384 98.7273 45.3648 97.9191 45.6176 97.2486C45.8733 96.5782 46.2398 96.0668 46.7171 95.7145C47.1972 95.3623 47.771 95.1861 48.4387 95.1861C49.1063 95.1861 49.6787 95.3637 50.156 95.7188C50.6333 96.0711 50.9983 96.5824 51.2512 97.2529C51.5068 97.9205 51.6347 98.7273 51.6347 99.6733C51.6347 100.625 51.5083 101.438 51.2554 102.111C51.0026 102.781 50.6375 103.294 50.1602 103.649C49.683 104.001 49.1091 104.178 48.4387 104.178ZM48.4387 103.04C49.0296 103.04 49.4912 102.751 49.8236 102.175C50.1588 101.598 50.3264 100.764 50.3264 99.6733C50.3264 98.9489 50.2497 98.3367 50.0963 97.8367C49.9458 97.3339 49.7284 96.9532 49.4443 96.6946C49.1631 96.4333 48.8279 96.3026 48.4387 96.3026C47.8506 96.3026 47.3889 96.5924 47.0537 97.1719C46.7185 97.7515 46.5495 98.5853 46.5466 99.6733C46.5466 100.401 46.6219 101.016 46.7725 101.519C46.9259 102.019 47.1432 102.398 47.4245 102.656C47.7057 102.912 48.0438 103.04 48.4387 103.04Z" fill="#96999C"/>
</g>
<path d="M290.895 305.269H289.497L292.638 296.542H294.159L297.3 305.269H295.902L293.435 298.127H293.366L290.895 305.269ZM291.129 301.851H295.663V302.959H291.129V301.851ZM298.065 307.723V298.723H299.31V299.784H299.416C299.49 299.648 299.597 299.49 299.736 299.311C299.875 299.132 300.068 298.976 300.315 298.843C300.562 298.706 300.889 298.638 301.295 298.638C301.824 298.638 302.295 298.772 302.71 299.039C303.125 299.306 303.45 299.691 303.686 300.194C303.925 300.696 304.044 301.301 304.044 302.009C304.044 302.716 303.926 303.323 303.69 303.828C303.455 304.331 303.131 304.719 302.719 304.992C302.307 305.262 301.837 305.397 301.308 305.397C300.91 305.397 300.585 305.33 300.332 305.196C300.082 305.063 299.886 304.907 299.744 304.728C299.602 304.549 299.493 304.39 299.416 304.25H299.339V307.723H298.065ZM299.314 301.996C299.314 302.456 299.381 302.86 299.514 303.206C299.648 303.553 299.841 303.824 300.094 304.02C300.347 304.213 300.656 304.31 301.023 304.31C301.403 304.31 301.722 304.209 301.977 304.007C302.233 303.803 302.426 303.526 302.557 303.176C302.69 302.827 302.757 302.434 302.757 301.996C302.757 301.564 302.692 301.176 302.561 300.833C302.433 300.489 302.24 300.218 301.982 300.019C301.726 299.82 301.406 299.721 301.023 299.721C300.653 299.721 300.341 299.816 300.085 300.006C299.832 300.196 299.641 300.462 299.51 300.803C299.379 301.144 299.314 301.542 299.314 301.996ZM305.079 305.269V298.723H306.311V299.763H306.379C306.498 299.411 306.709 299.134 307.01 298.932C307.314 298.728 307.657 298.625 308.041 298.625C308.12 298.625 308.214 298.628 308.322 298.634C308.433 298.64 308.52 298.647 308.582 298.655V299.874C308.531 299.86 308.44 299.844 308.309 299.827C308.179 299.807 308.048 299.797 307.917 299.797C307.616 299.797 307.348 299.861 307.112 299.989C306.879 300.114 306.694 300.289 306.558 300.513C306.422 300.735 306.353 300.988 306.353 301.272V305.269H305.079ZM309.292 305.269V298.723H310.567V305.269H309.292ZM309.936 297.713C309.714 297.713 309.524 297.64 309.365 297.492C309.209 297.341 309.13 297.162 309.13 296.955C309.13 296.745 309.209 296.566 309.365 296.418C309.524 296.267 309.714 296.192 309.936 296.192C310.157 296.192 310.346 296.267 310.503 296.418C310.662 296.566 310.741 296.745 310.741 296.955C310.741 297.162 310.662 297.341 310.503 297.492C310.346 297.64 310.157 297.713 309.936 297.713ZM313.163 296.542V305.269H311.888V296.542H313.163Z" fill="#96999C"/>
<path d="M204.874 296.542H206.472L209.25 303.326H209.352L212.131 296.542H213.729V305.269H212.476V298.953H212.395L209.821 305.256H208.781L206.207 298.949H206.126V305.269H204.874V296.542ZM217.053 305.414C216.639 305.414 216.264 305.337 215.928 305.184C215.593 305.027 215.328 304.801 215.132 304.506C214.938 304.211 214.842 303.848 214.842 303.419C214.842 303.05 214.913 302.746 215.055 302.507C215.197 302.269 215.389 302.08 215.63 301.941C215.872 301.801 216.142 301.696 216.44 301.625C216.738 301.554 217.042 301.5 217.352 301.463C217.744 301.418 218.062 301.381 218.306 301.353C218.551 301.321 218.728 301.272 218.839 301.203C218.95 301.135 219.005 301.024 219.005 300.871V300.841C219.005 300.469 218.9 300.181 218.69 299.976C218.482 299.772 218.173 299.669 217.761 299.669C217.332 299.669 216.994 299.765 216.747 299.955C216.502 300.142 216.333 300.351 216.24 300.581L215.042 300.309C215.184 299.911 215.392 299.59 215.664 299.346C215.94 299.098 216.257 298.919 216.615 298.809C216.972 298.695 217.349 298.638 217.744 298.638C218.005 298.638 218.282 298.669 218.575 298.732C218.87 298.792 219.146 298.902 219.401 299.064C219.66 299.226 219.872 299.458 220.036 299.759C220.201 300.057 220.284 300.445 220.284 300.922V305.269H219.039V304.374H218.988C218.906 304.539 218.782 304.701 218.617 304.86C218.453 305.019 218.241 305.151 217.982 305.256C217.724 305.361 217.414 305.414 217.053 305.414ZM217.33 304.391C217.683 304.391 217.984 304.321 218.234 304.182C218.487 304.043 218.678 303.861 218.809 303.637C218.943 303.409 219.009 303.167 219.009 302.908V302.064C218.964 302.11 218.876 302.152 218.745 302.192C218.617 302.229 218.471 302.262 218.306 302.29C218.142 302.316 217.981 302.34 217.825 302.363C217.668 302.382 217.538 302.399 217.433 302.414C217.186 302.445 216.96 302.497 216.755 302.571C216.553 302.645 216.392 302.752 216.269 302.891C216.15 303.027 216.09 303.209 216.09 303.436C216.09 303.752 216.207 303.99 216.44 304.152C216.673 304.311 216.97 304.391 217.33 304.391ZM221.588 305.269V298.723H222.82V299.763H222.888C223.007 299.411 223.218 299.134 223.519 298.932C223.823 298.728 224.166 298.625 224.55 298.625C224.63 298.625 224.723 298.628 224.831 298.634C224.942 298.64 225.029 298.647 225.091 298.655V299.874C225.04 299.86 224.949 299.844 224.818 299.827C224.688 299.807 224.557 299.797 224.426 299.797C224.125 299.797 223.857 299.861 223.621 299.989C223.388 300.114 223.203 300.289 223.067 300.513C222.931 300.735 222.862 300.988 222.862 301.272V305.269H221.588Z" fill="#96999C"/>
<path d="M119.578 305.269V296.542H124.99V297.675H120.895V300.334H124.602V301.463H120.895V305.269H119.578ZM128.455 305.401C127.81 305.401 127.255 305.263 126.789 304.988C126.326 304.709 125.968 304.319 125.715 303.816C125.465 303.31 125.34 302.718 125.34 302.039C125.34 301.368 125.465 300.777 125.715 300.266C125.968 299.755 126.32 299.355 126.772 299.069C127.227 298.782 127.758 298.638 128.366 298.638C128.735 298.638 129.093 298.699 129.44 298.821C129.786 298.944 130.097 299.135 130.373 299.397C130.648 299.658 130.866 299.997 131.025 300.415C131.184 300.83 131.264 301.334 131.264 301.928V302.38H126.06V301.425H130.015C130.015 301.09 129.947 300.793 129.81 300.534C129.674 300.273 129.482 300.067 129.235 299.917C128.991 299.766 128.704 299.691 128.374 299.691C128.016 299.691 127.704 299.779 127.437 299.955C127.173 300.128 126.968 300.355 126.823 300.637C126.681 300.915 126.61 301.218 126.61 301.544V302.29C126.61 302.728 126.687 303.1 126.84 303.407C126.997 303.713 127.214 303.948 127.492 304.11C127.771 304.269 128.096 304.348 128.468 304.348C128.71 304.348 128.93 304.314 129.129 304.246C129.327 304.175 129.499 304.07 129.644 303.931C129.789 303.792 129.9 303.62 129.977 303.415L131.183 303.632C131.086 303.988 130.913 304.299 130.663 304.566C130.416 304.83 130.104 305.036 129.729 305.184C129.357 305.328 128.933 305.401 128.455 305.401ZM132.387 305.269V296.542H133.661V299.784H133.738C133.812 299.648 133.918 299.49 134.058 299.311C134.197 299.132 134.39 298.976 134.637 298.843C134.884 298.706 135.211 298.638 135.617 298.638C136.146 298.638 136.617 298.772 137.032 299.039C137.447 299.306 137.772 299.691 138.008 300.194C138.247 300.696 138.366 301.301 138.366 302.009C138.366 302.716 138.248 303.323 138.012 303.828C137.776 304.331 137.453 304.719 137.041 304.992C136.629 305.262 136.159 305.397 135.63 305.397C135.232 305.397 134.907 305.33 134.654 305.196C134.404 305.063 134.208 304.907 134.066 304.728C133.924 304.549 133.815 304.39 133.738 304.25H133.632V305.269H132.387ZM133.636 301.996C133.636 302.456 133.703 302.86 133.836 303.206C133.97 303.553 134.163 303.824 134.416 304.02C134.668 304.213 134.978 304.31 135.345 304.31C135.725 304.31 136.043 304.209 136.299 304.007C136.555 303.803 136.748 303.526 136.879 303.176C137.012 302.827 137.079 302.434 137.079 301.996C137.079 301.564 137.014 301.176 136.883 300.833C136.755 300.489 136.562 300.218 136.303 300.019C136.048 299.82 135.728 299.721 135.345 299.721C134.975 299.721 134.663 299.816 134.407 300.006C134.154 300.196 133.963 300.462 133.832 300.803C133.701 301.144 133.636 301.542 133.636 301.996Z" fill="#96999C"/>
<path d="M377.862 296.542H379.46L382.238 303.326H382.34L385.119 296.542H386.717V305.269H385.464V298.953H385.383L382.809 305.256H381.769L379.196 298.949H379.115V305.269H377.862V296.542ZM390.042 305.414C389.627 305.414 389.252 305.337 388.917 305.184C388.581 305.027 388.316 304.801 388.12 304.506C387.927 304.211 387.83 303.848 387.83 303.419C387.83 303.05 387.901 302.746 388.043 302.507C388.185 302.269 388.377 302.08 388.618 301.941C388.86 301.801 389.13 301.696 389.428 301.625C389.726 301.554 390.03 301.5 390.34 301.463C390.732 301.418 391.05 301.381 391.294 301.353C391.539 301.321 391.716 301.272 391.827 301.203C391.938 301.135 391.993 301.024 391.993 300.871V300.841C391.993 300.469 391.888 300.181 391.678 299.976C391.471 299.772 391.161 299.669 390.749 299.669C390.32 299.669 389.982 299.765 389.735 299.955C389.49 300.142 389.321 300.351 389.228 300.581L388.03 300.309C388.172 299.911 388.38 299.59 388.652 299.346C388.928 299.098 389.245 298.919 389.603 298.809C389.961 298.695 390.337 298.638 390.732 298.638C390.993 298.638 391.27 298.669 391.563 298.732C391.858 298.792 392.134 298.902 392.39 299.064C392.648 299.226 392.86 299.458 393.025 299.759C393.189 300.057 393.272 300.445 393.272 300.922V305.269H392.027V304.374H391.976C391.894 304.539 391.77 304.701 391.605 304.86C391.441 305.019 391.229 305.151 390.971 305.256C390.712 305.361 390.402 305.414 390.042 305.414ZM390.319 304.391C390.671 304.391 390.972 304.321 391.222 304.182C391.475 304.043 391.667 303.861 391.797 303.637C391.931 303.409 391.998 303.167 391.998 302.908V302.064C391.952 302.11 391.864 302.152 391.733 302.192C391.605 302.229 391.459 302.262 391.294 302.29C391.13 302.316 390.969 302.34 390.813 302.363C390.657 302.382 390.526 302.399 390.421 302.414C390.174 302.445 389.948 302.497 389.743 302.571C389.542 302.645 389.38 302.752 389.257 302.891C389.138 303.027 389.078 303.209 389.078 303.436C389.078 303.752 389.195 303.99 389.428 304.152C389.661 304.311 389.958 304.391 390.319 304.391ZM395.147 307.723C394.957 307.723 394.784 307.708 394.628 307.676C394.471 307.648 394.355 307.617 394.278 307.583L394.585 306.539C394.818 306.601 395.025 306.628 395.207 306.62C395.389 306.611 395.549 306.543 395.689 306.415C395.831 306.287 395.956 306.078 396.064 305.789L396.221 305.354L393.826 298.723H395.19L396.848 303.803H396.916L398.574 298.723H399.942L397.244 306.142C397.119 306.483 396.96 306.772 396.767 307.007C396.574 307.246 396.344 307.425 396.076 307.544C395.809 307.664 395.5 307.723 395.147 307.723Z" fill="#96999C"/>
<path d="M468.803 296.542H470.115V302.729C470.115 303.289 470.005 303.767 469.783 304.165C469.564 304.563 469.256 304.867 468.858 305.077C468.461 305.284 467.995 305.388 467.461 305.388C466.969 305.388 466.527 305.299 466.135 305.12C465.746 304.941 465.438 304.681 465.211 304.34C464.986 303.996 464.874 303.578 464.874 303.087H466.182C466.182 303.328 466.238 303.537 466.348 303.713C466.462 303.89 466.617 304.027 466.813 304.127C467.012 304.223 467.239 304.272 467.495 304.272C467.773 304.272 468.009 304.213 468.202 304.097C468.398 303.978 468.547 303.803 468.65 303.573C468.752 303.343 468.803 303.061 468.803 302.729V296.542ZM475.684 302.554V298.723H476.962V305.269H475.709V304.135H475.641C475.491 304.485 475.249 304.776 474.917 305.009C474.587 305.239 474.177 305.354 473.685 305.354C473.265 305.354 472.893 305.262 472.569 305.077C472.248 304.89 471.995 304.613 471.81 304.246C471.628 303.88 471.537 303.426 471.537 302.887V298.723H472.812V302.733C472.812 303.179 472.935 303.534 473.182 303.799C473.43 304.063 473.751 304.195 474.145 304.195C474.384 304.195 474.621 304.135 474.857 304.016C475.096 303.897 475.293 303.716 475.449 303.475C475.608 303.233 475.687 302.926 475.684 302.554ZM479.556 301.382V305.269H478.282V298.723H479.505V299.789H479.586C479.736 299.442 479.972 299.164 480.293 298.953C480.617 298.743 481.025 298.638 481.516 298.638C481.962 298.638 482.353 298.732 482.688 298.919C483.023 299.104 483.283 299.38 483.468 299.746C483.653 300.113 483.745 300.566 483.745 301.105V305.269H482.471V301.259C482.471 300.784 482.347 300.414 482.1 300.147C481.853 299.877 481.513 299.742 481.082 299.742C480.786 299.742 480.523 299.806 480.293 299.934C480.066 300.061 479.886 300.249 479.752 300.496C479.621 300.74 479.556 301.036 479.556 301.382ZM487.882 305.401C487.238 305.401 486.682 305.263 486.216 304.988C485.753 304.709 485.395 304.319 485.142 303.816C484.892 303.31 484.767 302.718 484.767 302.039C484.767 301.368 484.892 300.777 485.142 300.266C485.395 299.755 485.748 299.355 486.199 299.069C486.654 298.782 487.185 298.638 487.793 298.638C488.162 298.638 488.52 298.699 488.867 298.821C489.213 298.944 489.525 299.135 489.8 299.397C490.076 299.658 490.293 299.997 490.452 300.415C490.611 300.83 490.691 301.334 490.691 301.928V302.38H485.488V301.425H489.442C489.442 301.09 489.374 300.793 489.238 300.534C489.101 300.273 488.909 300.067 488.662 299.917C488.418 299.766 488.131 299.691 487.801 299.691C487.444 299.691 487.131 299.779 486.864 299.955C486.6 300.128 486.395 300.355 486.25 300.637C486.108 300.915 486.037 301.218 486.037 301.544V302.29C486.037 302.728 486.114 303.1 486.267 303.407C486.424 303.713 486.641 303.948 486.919 304.11C487.198 304.269 487.523 304.348 487.895 304.348C488.137 304.348 488.357 304.314 488.556 304.246C488.755 304.175 488.926 304.07 489.071 303.931C489.216 303.792 489.327 303.62 489.404 303.415L490.61 303.632C490.513 303.988 490.34 304.299 490.09 304.566C489.843 304.83 489.532 305.036 489.157 305.184C488.784 305.328 488.36 305.401 487.882 305.401Z" fill="#96999C"/>
<path d="M559.707 296.542H561.019V302.729C561.019 303.289 560.908 303.767 560.687 304.165C560.468 304.563 560.16 304.867 559.762 305.077C559.364 305.284 558.898 305.388 558.364 305.388C557.873 305.388 557.431 305.299 557.039 305.12C556.65 304.941 556.342 304.681 556.114 304.34C555.89 303.996 555.778 303.578 555.778 303.087H557.086C557.086 303.328 557.141 303.537 557.252 303.713C557.366 303.89 557.521 304.027 557.717 304.127C557.915 304.223 558.143 304.272 558.398 304.272C558.677 304.272 558.913 304.213 559.106 304.097C559.302 303.978 559.451 303.803 559.553 303.573C559.656 303.343 559.707 303.061 559.707 302.729V296.542ZM566.587 302.554V298.723H567.866V305.269H566.613V304.135H566.545C566.394 304.485 566.153 304.776 565.82 305.009C565.491 305.239 565.08 305.354 564.589 305.354C564.168 305.354 563.796 305.262 563.472 305.077C563.151 304.89 562.899 304.613 562.714 304.246C562.532 303.88 562.441 303.426 562.441 302.887V298.723H563.715V302.733C563.715 303.179 563.839 303.534 564.086 303.799C564.333 304.063 564.654 304.195 565.049 304.195C565.288 304.195 565.525 304.135 565.761 304.016C565.999 303.897 566.197 303.716 566.353 303.475C566.512 303.233 566.59 302.926 566.587 302.554ZM570.46 296.542V305.269H569.186V296.542H570.46ZM572.587 307.723C572.397 307.723 572.223 307.708 572.067 307.676C571.911 307.648 571.794 307.617 571.718 307.583L572.024 306.539C572.257 306.601 572.465 306.628 572.647 306.62C572.828 306.611 572.989 306.543 573.128 306.415C573.27 306.287 573.395 306.078 573.503 305.789L573.661 305.354L571.266 298.723H572.63L574.287 303.803H574.355L576.013 298.723H577.381L574.683 306.142C574.558 306.483 574.399 306.772 574.206 307.007C574.013 307.246 573.783 307.425 573.516 307.544C573.249 307.664 572.939 307.723 572.587 307.723Z" fill="#96999C"/>
<path d="M128.78 220.42L156.69 139.449L174.015 179.934L197.571 98.4016L229.408 260.905L246.357 220.42H267.418L301.609 139.449L316.959 179.934L340.837 107.961L362.188 163.782H389.161L410.419 211.423L437.454 139.449H461.363L477.282 98.4016L502.296 170.938H523.9L540.933 211.423L567.108 121.012" stroke="#1F41F7" stroke-width="2"/>
</g>
<defs>
<filter id="filter0_d_338_2415" x="0" y="0" width="622" height="351" filterUnits="userSpaceOnUse" color-interpolation-filters="sRGB">
<feFlood flood-opacity="0" result="BackgroundImageFix"/>
<feColorMatrix in="SourceAlpha" type="matrix" values="0 0 0 0 0 0 0 0 0 0 0 0 0 0 0 0 0 0 127 0" result="hardAlpha"/>
<feOffset dx="2" dy="4"/>
<feGaussianBlur stdDeviation="2"/>
<feComposite in2="hardAlpha" operator="out"/>
<feColorMatrix type="matrix" values="0 0 0 0 0 0 0 0 0 0 0 0 0 0 0 0 0 0 0.25 0"/>
<feBlend mode="normal" in2="BackgroundImageFix" result="effect1_dropShadow_338_2415"/>
<feBlend mode="normal" in="SourceGraphic" in2="effect1_dropShadow_338_2415" result="shape"/>
</filter>
<clipPath id="clip0_338_2415">
<rect width="196.326" height="22.4918" fill="white" transform="translate(398.501 26)"/>
</clipPath>
<clipPath id="clip1_338_2415">
<rect width="42.3448" height="191" fill="white" transform="translate(36.646 95)"/>
</clipPath>
</defs>
</svg>
